<?xml version="1.0" standalone="no"?>
<!DOCTYPE svg PUBLIC "-//W3C//DTD SVG 20010904//EN"
 "http://www.w3.org/TR/2001/REC-SVG-20010904/DTD/svg10.dtd">
<svg version="1.0" xmlns="http://www.w3.org/2000/svg"
 width="256.000000pt" height="256.000000pt" viewBox="0 0 256.000000 256.000000"
 preserveAspectRatio="xMidYMid meet">
<metadata>
Created by potrace 1.14, written by Peter Selinger 2001-2017
</metadata>
<g transform="translate(0.000000,256.000000) scale(0.100000,-0.100000)"
fill="#000000" stroke="none">
<path d="M2217 2423 c-3 -5 -8 -37 -11 -73 -4 -36 -9 -72 -11 -80 -2 -8 -6
-33 -10 -55 -37 -252 -168 -556 -297 -689 l-30 -31 6 30 c26 133 21 491 -9
650 -2 11 -4 31 -5 45 -1 14 -10 -11 -20 -55 -37 -164 -124 -325 -241 -450
-58 -61 -185 -163 -193 -154 -2 2 -17 40 -35 84 -18 44 -36 89 -40 100 -7 18
-51 153 -58 180 -36 140 -48 174 -54 163 -27 -50 -106 -327 -116 -408 -10 -84
-16 -88 -46 -37 -15 25 -27 49 -27 53 0 4 -6 15 -13 23 -20 24 -110 231 -157
364 l-43 118 -19 -43 c-72 -160 -106 -384 -83 -543 9 -61 37 -178 47 -198 19
-37 -1 -27 -58 30 -176 176 -267 429 -267 742 l0 95 -33 -38 c-42 -48 -118
-202 -140 -281 -23 -85 -27 -282 -8 -365 19 -81 64 -195 100 -252 42 -68 104
-138 122 -138 8 0 13 -3 9 -6 -3 -4 -32 -6 -64 -6 -32 0 -72 -6 -89 -13 -39
-16 -74 -60 -74 -93 0 -22 66 -244 91 -307 4 -11 42 -128 84 -260 47 -144 85
-249 98 -263 11 -12 38 -27 59 -34 36 -11 38 -13 38 -52 0 -75 -52 -70 659
-70 461 0 644 3 652 11 7 7 12 31 13 54 2 42 2 43 48 55 26 6 54 19 63 27 19
19 147 392 134 392 -1 0 3 10 10 23 10 18 48 132 65 197 2 6 6 17 9 25 24 64
57 180 57 202 0 35 -42 84 -83 97 -18 6 -50 10 -72 10 -22 -1 -55 -1 -73 0
l-33 1 42 61 c70 104 117 220 146 359 19 95 25 406 10 520 -4 30 -10 77 -13
104 -3 27 -8 58 -10 70 -10 45 -16 82 -15 99 0 18 -5 22 -12 10z"/>
</g>
</svg>
